<svg width="460" height="194" viewBox="0 0 460 194" xmlns="http://www.w3.org/2000/svg" font-family="'Cascadia Code', 'JetBrains Mono', 'Fira Code', ui-monospace, 'SF Mono', Consolas, monospace">
  <defs>
    <pattern id="dots-c2" width="9" height="9" patternUnits="userSpaceOnUse">
      <circle cx="1.5" cy="1.5" r="1" fill="#12100E" opacity="0.12" />
    </pattern>
    <clipPath id="head-c2"><path d="M0,14 a14,14 0 0 1 14,-14 h426 a14,14 0 0 1 14,14 v30 h-454 Z" /></clipPath>
  </defs>
  <rect x="6" y="6" width="454" height="188" rx="14" fill="#12100E" />
  <rect x="0" y="0" width="454" height="188" rx="14" fill="#FFFDF7" stroke="#12100E" stroke-width="3" />
  <path d="M0,14 a14,14 0 0 1 14,-14 h426 a14,14 0 0 1 14,14 v30 h-454 Z" fill="#B15BFF" stroke="#12100E" stroke-width="3" />
  <rect x="0" y="0" width="454" height="44" fill="url(#dots-c2)" clip-path="url(#head-c2)" />
  <g transform="translate(18, 12) scale(0.2)">
    <path d="M60 6 L25 57 L45 57 L39 94 L76 43 L54 43 Z" fill="#12100E">
      <animate attributeName="opacity" values="1;1;0.35;1;1" keyTimes="0;0.85;0.9;0.95;1" dur="5s" repeatCount="indefinite" />
    </path>
  </g>
  <text x="42" y="28" font-size="14" font-weight="700" letter-spacing="0.5" fill="#12100E">MOST USED LANGUAGES</text>
  
    <rect x="20" y="78" width="412" height="14" rx="7" fill="#FFFDF7" stroke="#12100E" stroke-width="2" />
    <clipPath id="bar"><rect x="21" y="79" width="410" height="12" rx="6" /></clipPath>
    <g clip-path="url(#bar)"><rect x="21" y="78" width="173.0236874722984" height="12" fill="#FFD400">
      <animate attributeName="width" values="0;173.0236874722984" keyTimes="0;1" begin="0s" dur="0.6s" fill="freeze" calcMode="spline" keySplines="0.2 0.9 0.3 1" />
    </rect><rect x="194.0236874722984" y="78" width="94.9767700623794" height="12" fill="#FF5D3B">
      <animate attributeName="width" values="0;94.9767700623794" keyTimes="0;1" begin="0.08s" dur="0.6s" fill="freeze" calcMode="spline" keySplines="0.2 0.9 0.3 1" />
    </rect><rect x="289.0004575346778" y="78" width="93.05587429424914" height="12" fill="#00D19B">
      <animate attributeName="width" values="0;93.05587429424914" keyTimes="0;1" begin="0.16s" dur="0.6s" fill="freeze" calcMode="spline" keySplines="0.2 0.9 0.3 1" />
    </rect><rect x="382.05633182892694" y="78" width="34.056280387973466" height="12" fill="#4D7CFE">
      <animate attributeName="width" values="0;34.056280387973466" keyTimes="0;1" begin="0.24s" dur="0.6s" fill="freeze" calcMode="spline" keySplines="0.2 0.9 0.3 1" />
    </rect><rect x="416.1126122169004" y="78" width="12.469930136302224" height="12" fill="#B15BFF">
      <animate attributeName="width" values="0;12.469930136302224" keyTimes="0;1" begin="0.32s" dur="0.6s" fill="freeze" calcMode="spline" keySplines="0.2 0.9 0.3 1" />
    </rect><rect x="428.5825423532026" y="78" width="2.4174576467973568" height="12" fill="#FFD400">
      <animate attributeName="width" values="0;2.4174576467973568" keyTimes="0;1" begin="0.4s" dur="0.6s" fill="freeze" calcMode="spline" keySplines="0.2 0.9 0.3 1" />
    </rect></g>
    
    <rect x="20" y="103" width="10" height="10" rx="3" fill="#FFD400" stroke="#12100E" stroke-width="1.5" />
    <text x="36" y="112" font-size="12" font-weight="600" fill="#12100E">TypeScript 42.2%</text>
    <rect x="240" y="103" width="10" height="10" rx="3" fill="#FF5D3B" stroke="#12100E" stroke-width="1.5" />
    <text x="256" y="112" font-size="12" font-weight="600" fill="#12100E">Python 23.2%</text>
    <rect x="20" y="125" width="10" height="10" rx="3" fill="#00D19B" stroke="#12100E" stroke-width="1.5" />
    <text x="36" y="134" font-size="12" font-weight="600" fill="#12100E">JavaScript 22.7%</text>
    <rect x="240" y="125" width="10" height="10" rx="3" fill="#4D7CFE" stroke="#12100E" stroke-width="1.5" />
    <text x="256" y="134" font-size="12" font-weight="600" fill="#12100E">HTML 8.3%</text>
    <rect x="20" y="147" width="10" height="10" rx="3" fill="#B15BFF" stroke="#12100E" stroke-width="1.5" />
    <text x="36" y="156" font-size="12" font-weight="600" fill="#12100E">CSS 3.0%</text>
    <rect x="240" y="147" width="10" height="10" rx="3" fill="#FFD400" stroke="#12100E" stroke-width="1.5" />
    <text x="256" y="156" font-size="12" font-weight="600" fill="#12100E">Java 0.6%</text>
  
</svg>